# xmcd
#
# Track frame offsets:
#	150
#	13487
#	28562
#	41085
#	57867
#	70537
#	83670
#	100777
#	111950
#	125604
#	131462
#	141280
#	151777
#	165502
#	172040
#	181405
#	194302
#	201432
#	214105
#	224530
#	236980
#	252877
#	276130
#
# Disc length: 3836 seconds
#
# Revision: 0
# Processed by: cddbd v1.5.1PL0 Copyright (c) Steve Scherf et al.
# Submitted via: EasyCDDAExtractor 4.5.0.2
#
DISCID=540efa17
DTITLE=Ruben Hakhverdian - The Best of Ruben Hakhverdian
DYEAR=1900
DGENRE=
TTITLE0=Im Poqrik Navak
TTITLE1=Mardu Kyanqe
TTITLE2=Poetnere Ev Shnere
TTITLE3=Mer Siro Ashune
TTITLE4=Poqrik Ishkhan
TTITLE5=Lavaguyn Txerqe
TTITLE6=Nkar
TTITLE7=Qo Tshampan
TTITLE8=Gazananotz
TTITLE9=Shnere
TTITLE10=Yeze
TTITLE11=Spitak Agavnin
TTITLE12=Andzreve
TTITLE13=Yerjankutyun
TTITLE14=Shog Kiraki
TTITLE15=Dzyunn Im Ergn e Ergum
TTITLE16=Kanchir Indz
TTITLE17=Du Es Im Miak Sere
TTITLE18=Shataxos Andzrev
TTITLE19=Barov Ekar Sirun Krunk
TTITLE20=Shirimis Vra
TTITLE21=Yerevani Gishernerum
TTITLE22=Sareri Qami
EXTD=
EXTT0=
EXTT1=
EXTT2=
EXTT3=
EXTT4=
EXTT5=
EXTT6=
EXTT7=
EXTT8=
EXTT9=
EXTT10=
EXTT11=
EXTT12=
EXTT13=
EXTT14=
EXTT15=
EXTT16=
EXTT17=
EXTT18=
EXTT19=
EXTT20=
EXTT21=
EXTT22=
PLAYORDER=
